<svg width="18" height="18" viewBox="0 0 18 18" fill="none" xmlns="http://www.w3.org/2000/svg">
<path d="M16.5563 17.5562C17.1086 17.5562 17.5563 17.1084 17.5563 16.5562L17.5563 7.55615C17.5563 7.00387 17.1086 6.55615 16.5563 6.55615C16.0041 6.55615 15.5563 7.00387 15.5563 7.55615L15.5563 15.5562L7.55634 15.5562C7.00405 15.5562 6.55634 16.0039 6.55634 16.5562C6.55634 17.1084 7.00405 17.5562 7.55634 17.5562L16.5563 17.5562ZM1.70709 0.292697C1.31657 -0.0978272 0.683404 -0.0978276 0.29288 0.292697C-0.0976445 0.683221 -0.0976441 1.31639 0.29288 1.70691L1.70709 0.292697ZM17.2634 15.849L1.70709 0.292697L0.29288 1.70691L15.8492 17.2633L17.2634 15.849Z" fill="#03FA6E"/>
</svg>
